<?xml version="1.0" standalone="no"?>
<!DOCTYPE svg PUBLIC "-//W3C//DTD SVG 20010904//EN"
 "http://www.w3.org/TR/2001/REC-SVG-20010904/DTD/svg10.dtd">
<svg version="1.0" xmlns="http://www.w3.org/2000/svg"
 width="330.000000pt" height="330.000000pt" viewBox="0 0 330.000000 330.000000"
 preserveAspectRatio="xMidYMid meet">
<metadata>
Created by potrace 1.16, written by Peter Selinger 2001-2019
</metadata>
<g transform="translate(0.000000,330.000000) scale(0.100000,-0.100000)"
fill="#000000" stroke="none">
<path d="M0 1650 l0 -1650 1650 0 1650 0 0 1650 0 1650 -1650 0 -1650 0 0
-1650z m1380 1080 c-11 -7 0 -9 37 -7 58 5 145 -14 151 -31 5 -16 103 -16 136
-1 14 7 24 15 22 18 -2 3 17 6 42 6 25 0 47 5 49 11 2 7 22 8 56 3 28 -4 63
-7 77 -7 23 0 23 1 -5 9 -21 5 -13 6 25 2 76 -8 103 -26 163 -106 38 -51 117
-128 126 -122 4 2 14 -5 21 -16 8 -10 20 -19 26 -19 7 0 46 -16 87 -35 41 -19
79 -35 83 -35 14 0 84 -70 84 -83 0 -8 3 -8 9 1 7 11 9 11 14 -2 4 -9 2 -16
-4 -16 -5 0 1 -15 15 -33 18 -24 22 -36 15 -49 -7 -12 -6 -25 1 -38 6 -11 12
-54 13 -95 1 -41 5 -75 10 -75 4 0 7 -8 7 -17 0 -24 23 -83 32 -83 4 0 8 -6 8
-14 0 -8 12 -27 28 -44 15 -17 28 -36 30 -44 2 -7 7 -15 11 -18 5 -3 11 -16
14 -30 3 -14 11 -45 17 -69 6 -24 8 -53 5 -65 -11 -40 -38 -96 -46 -96 -5 0
-6 -7 -3 -15 4 -8 2 -15 -3 -15 -15 0 -79 -105 -88 -145 -11 -43 -18 -92 -26
-164 -9 -94 -26 -154 -40 -146 -5 4 -6 0 -3 -8 6 -16 -57 -85 -96 -105 -14 -8
-68 -32 -120 -54 -75 -31 -107 -52 -153 -96 -32 -31 -55 -63 -52 -70 2 -7 1
-11 -4 -8 -4 3 -27 -15 -50 -39 -23 -25 -46 -45 -51 -45 -5 0 -16 -8 -26 -17
-13 -14 -34 -18 -93 -17 -91 0 -141 6 -147 16 -3 4 -18 8 -34 8 -16 0 -31 4
-34 8 -11 17 -96 11 -206 -14 -63 -15 -126 -28 -140 -29 -26 -2 -91 15 -100
25 -3 4 -13 11 -22 16 -20 11 -122 106 -133 124 -5 9 -4 11 3 6 7 -4 12 -5 12
-1 0 3 -11 10 -25 15 -14 5 -28 18 -32 27 -11 29 -42 49 -163 101 -107 46
-122 55 -160 92 -39 38 -52 59 -28 44 7 -4 2 7 -10 24 -22 30 -37 116 -46 254
-1 26 -10 56 -19 65 -8 10 -16 23 -18 28 -1 6 -14 29 -30 52 -16 23 -29 48
-29 55 0 7 -9 24 -20 38 -11 14 -20 32 -20 40 0 9 -5 21 -11 27 -19 19 4 144
32 169 10 9 19 21 19 27 0 17 41 67 51 62 10 -7 12 5 9 49 -1 17 2 26 8 22 7
-4 13 13 17 41 3 27 10 62 15 79 6 17 10 55 10 85 0 98 42 186 98 203 11 4 24
16 27 27 7 21 92 69 123 69 18 0 145 72 170 96 6 7 12 18 12 24 0 6 5 8 10 5
6 -3 10 3 10 15 0 12 5 18 10 15 6 -3 10 0 11 7 0 7 24 33 53 58 29 25 51 48
49 53 -2 4 5 7 16 7 11 0 23 5 26 10 3 6 27 10 53 10 35 0 43 -3 32 -10z"/>
<path d="M1293 2691 c-24 -11 -67 -46 -95 -78 -128 -140 -149 -157 -256 -202
-122 -52 -173 -86 -195 -134 -9 -19 -23 -93 -31 -165 -16 -139 -27 -176 -76
-247 -47 -69 -90 -166 -90 -205 0 -41 33 -114 94 -214 51 -82 62 -118 71 -236
14 -175 37 -213 164 -272 187 -85 190 -88 271 -181 134 -153 172 -166 351
-123 132 32 169 32 294 1 168 -42 214 -31 305 68 136 150 150 161 265 208 176
71 206 111 220 299 10 123 20 154 85 260 103 167 103 213 0 380 -62 101 -74
137 -85 265 -16 191 -37 218 -246 304 -88 37 -137 75 -209 166 -70 88 -117
115 -203 115 -36 0 -103 -9 -149 -20 -104 -25 -149 -25 -252 -1 -133 32 -185
34 -233 12z m-57 -676 c17 -13 14 -14 -33 -8 -48 5 -54 3 -82 -24 -17 -17 -33
-46 -37 -67 -8 -47 10 -112 36 -126 17 -9 24 -3 58 47 49 72 140 159 187 178
45 20 100 19 119 -1 36 -36 2 -125 -67 -175 -49 -36 -129 -75 -172 -84 -29 -5
-29 -5 5 11 108 50 129 63 176 109 61 61 75 102 44 127 -30 24 -68 8 -129 -57
-93 -98 -219 -322 -228 -407 -9 -80 46 -100 111 -40 39 37 86 121 86 155 0 42
-43 37 -88 -10 -32 -35 -34 -35 -18 -8 69 117 163 63 110 -63 -26 -64 -95
-122 -143 -122 -39 0 -70 23 -86 64 -20 48 -14 104 20 187 l23 56 -29 27 c-34
33 -53 87 -45 131 8 39 49 93 80 105 33 14 80 11 102 -5z m1020 -11 c12 -48
-4 -124 -41 -191 -34 -61 -35 -66 -18 -78 10 -8 30 -16 44 -19 71 -14 38 -182
-47 -240 -62 -42 -114 -31 -140 29 -19 47 -17 102 6 154 27 58 26 61 -14 61
-32 0 -37 -5 -66 -57 -68 -128 -138 -199 -204 -210 -30 -5 -40 -1 -66 25 -22
22 -30 40 -30 65 0 42 23 66 45 47 18 -15 19 -40 3 -75 -10 -22 -9 -28 3 -36
26 -16 66 -9 106 20 40 29 122 142 142 194 10 25 9 27 -15 27 -15 0 -23 4 -19
10 4 6 15 8 25 5 25 -8 46 15 100 115 78 145 170 220 186 154z m-641 -165
l-36 -51 12 -74 c6 -41 15 -77 19 -79 4 -2 22 26 39 64 37 82 54 99 76 81 37
-31 4 -107 -36 -82 -25 16 -29 15 -29 -3 0 -9 -9 -33 -19 -54 -11 -20 -25 -74
-31 -119 -20 -147 -59 -219 -136 -253 -39 -18 -47 -18 -77 -5 -46 19 -67 52
-67 104 0 32 6 49 25 67 23 24 63 35 50 15 -3 -5 -12 -10 -20 -10 -21 0 -45
-41 -45 -76 0 -46 34 -84 75 -84 61 0 139 92 160 188 8 38 -3 41 -35 7 -76
-81 -184 39 -149 167 17 64 40 91 133 152 87 57 115 86 117 121 2 17 2 17 6
-3 3 -15 -8 -40 -32 -73z"/>
<path d="M2175 1973 c-33 -34 -125 -176 -141 -216 -5 -14 0 -17 30 -17 31 0
39 5 60 38 40 63 116 208 116 220 0 23 -30 12 -65 -25z"/>
<path d="M2139 1682 c-30 -48 -59 -129 -59 -167 0 -29 19 -45 51 -45 51 0 133
120 127 188 -3 33 -6 37 -29 37 -16 0 -25 4 -22 11 2 6 -5 14 -17 17 -17 4
-27 -4 -51 -41z"/>
<path d="M1518 1733 c-65 -68 -94 -161 -68 -222 34 -82 130 -18 130 87 0 69
-12 172 -19 172 -4 0 -23 -17 -43 -37z"/>
</g>
</svg>
